<?xml version="1.0" ?>
<!-- Uploaded to: SVG Repo, www.svgrepo.com, Generator: SVG Repo Mixer Tools -->
<svg width="800px" height="800px" viewBox="0 0 512 512" version="1.1" xml:space="preserve" xmlns="http://www.w3.org/2000/svg" xmlns:xlink="http://www.w3.org/1999/xlink">
<style type="text/css">
	.st0{fill:#16ADE1;}
	.st1{fill:#1B3954;}
</style>
<g id="Layer_1"/>
<g id="Layer_2">
<g>
<path class="st1" d="M184.3,256c0,31.4,25.5,56.9,56.9,56.9c31.4,0,56.9-25.5,56.9-56.9c0-31.4-25.5-56.9-56.9-56.9    C209.7,199.1,184.3,224.6,184.3,256z"/>
<path class="st0" d="M241.2,189.1V55.7C130.6,55.7,40.9,145.4,40.9,256h133.4C174.3,219.1,204.3,189.1,241.2,189.1z"/>
<path class="st1" d="M285.2,445.6c-22.1,0-40.1-18-40.1-40.2s18-40.2,40.1-40.2c5.8,0,11.4,1.2,16.6,3.6L406.5,311V169.1    c-15-1-26.8-13.5-26.8-28.7v-29C346,79.1,301,58.4,251.2,56v133.9c32.1,4.8,56.9,32.6,56.9,66.1c0,36.9-30,66.9-66.9,66.9    c-33.5,0-61.3-24.7-66.1-56.9H41.1c5.2,106,92.8,190.3,200,190.3c71,0,133.4-37,169-92.8l-85.2,47    C322.5,430.3,305.6,445.6,285.2,445.6z M238.1,437.3C238.1,437.3,238.1,437.3,238.1,437.3c-43.5-0.7-85.2-17.1-117.7-46.1    c-32.2-28.8-53.1-68-58.9-110.5c-0.4-2.7,1.5-5.3,4.3-5.6c2.8-0.4,5.3,1.5,5.6,4.3c11.3,82.9,83,146.5,166.8,147.9    c2.8,0,5,2.3,4.9,5.1C243.1,435.1,240.9,437.3,238.1,437.3z"/>
<path class="st0" d="M452.4,55.7h-43.9c-10.3,0-18.7,8.4-18.7,18.7v65.9c0,10.3,8.4,18.7,18.7,18.7h8.1v157.8l-114.8,63.3    c-4.8-3.1-10.5-5-16.6-5c-16.7,0-30.2,13.5-30.2,30.2c0,16.6,13.5,30.2,30.2,30.2c16.6,0,30.1-13.5,30.1-30.2c0-0.3,0-0.7,0-1    l101.2-55.9l3.2-1.7l24.6-13.6V159.1h8.1c10.3,0,18.7-8.4,18.7-18.7V74.5C471.1,64.1,462.7,55.7,452.4,55.7z"/>
</g>
</g>
</svg>